<svg width="1937" height="1167" viewBox="0 0 1937 1167" fill="none" xmlns="http://www.w3.org/2000/svg">
<path d="M648.41 870.475C648.42 876.485 648.44 882.505 648.45 888.515C644.22 901.695 645.09 915.485 643.65 928.995C643.12 933.995 642.52 939.045 641.28 943.895C640.44 947.155 639.28 951.155 634.62 950.925C631.07 950.745 629.58 947.705 628.46 944.905C625.44 937.385 622.75 929.735 619.78 922.205C618.21 918.215 618.73 912.755 612.8 911.585C609.83 901.905 606.68 892.285 603.95 882.555C601.92 875.335 597.7 873.855 591.34 876.875C585.37 879.715 579.47 882.695 573.53 885.585C568.89 887.845 564.06 888.035 561.52 883.105C555.88 872.155 547.87 874.645 538.22 876.525C522.27 879.645 519.32 894.085 511.09 903.955C497.6 918.925 479.48 915.195 462.42 916.265C453.52 916.825 441.15 913.695 444.12 930.675C444.97 935.555 439.15 936.185 435.2 937.225C403.97 945.425 396.14 955.825 399.07 986.515C399.85 994.725 401.83 1002.2 389.56 1002.29C379.07 1002.36 373.24 998.565 373.11 987.145C373.01 977.875 375.95 970.185 381.7 963.225C385.6 958.515 390.46 953.825 387.55 946.935C384.56 939.865 377.59 940.255 371.64 940.455C326.82 941.895 281.88 936.415 237.13 945.515C220.64 948.865 202.18 948.515 190.52 931.095C189.52 929.595 187.22 928.385 185.37 928.105C167.27 925.415 161.52 908.965 151.1 897.715C151.16 894.645 151.22 891.585 151.28 888.515C152.16 887.735 152.27 886.845 151.61 885.875C150.96 855.225 150.32 824.565 149.67 793.915C150.18 789.885 151.2 785.845 151.12 781.825C150.2 734.355 148.99 686.885 148.15 639.405C147.8 619.495 149.87 617.985 170.04 617.345C205.77 616.205 241.49 614.865 277.2 613.385C308.1 612.105 314.94 618.265 314.96 648.275C314.96 653.385 315.11 658.525 314.58 663.595C313.31 675.685 319.11 680.465 330.62 680.285C343.41 680.085 356.21 680.005 369 680.235C392.5 680.665 417.32 675.245 439.11 683.405C459.81 691.155 458.82 679.695 460.49 667.675C462.17 655.565 466.66 646.965 477.54 638.995C496.41 625.175 518.2 623.215 539.29 618.145C551.27 615.265 559.67 611.905 556.29 597.025C554.84 590.655 557.23 585.295 565.64 588.465C573.1 591.275 575.7 586.145 578.52 581.145C591.64 586.995 607.48 582.075 619.69 591.535C620.65 595.535 622.65 598.745 626.49 600.565C627.95 603.345 629.42 606.115 630.88 608.895C630.32 634.155 632.66 659.905 628.43 684.535C623.41 713.815 630.18 738.395 645.76 762.035C646.46 763.445 647.16 764.855 647.86 766.255C649.66 773.395 653.47 778.855 660.64 781.495L660.63 781.485C667.03 795.905 679.42 794.905 691.92 793.615C694.78 793.605 697.63 793.595 700.49 793.585C714.72 795.685 728.45 799.245 740.56 807.415C743.04 809.085 746.42 810.975 745 814.525C743.33 818.695 740.06 815.685 737.26 815.415C723.43 814.075 709.15 815.985 696.92 806.145C693.45 803.355 687.03 804.365 682.1 806.535C675.11 804.735 669.33 807.055 664.26 811.785C656.87 811.955 649.49 812.125 642.1 812.295C642.08 811.485 641.75 810.845 641.1 810.365C637.96 801.825 630.19 799.055 624.14 803.335C616.83 808.515 625.74 813.415 628.17 818.245C628.58 819.055 629.74 819.485 630.55 820.085C633.66 826.515 636.78 832.945 639.9 839.365C639.19 846.225 640.91 852.425 644.96 857.985C645.43 859.875 645.9 861.775 646.37 863.665C645.52 866.405 646.26 868.655 648.41 870.475ZM231.81 910.935C222.26 908.915 212.76 906.325 204.23 913.775C213.68 916.055 223.07 917.725 231.81 910.935ZM614.13 786.635C616.96 787.015 619.95 786.055 619.52 783.165C618.64 777.365 614.65 772.925 609.33 771.025C605.28 769.585 604.67 773.755 604.69 776.745C604.72 782.865 608.63 785.585 614.13 786.635Z" fill="#0F0B0C"/>
<path d="M1519.05 693.805C1522.98 671.005 1519.8 648.065 1520.43 625.195C1520.7 615.155 1519.91 605.795 1527.09 596.355C1533.61 587.775 1528.83 575.525 1528.88 564.925C1528.98 540.945 1529.48 541.105 1553.9 540.025C1593.75 538.265 1633.6 537.765 1673.47 537.935C1693.82 538.025 1695.29 539.375 1695.82 559.275C1696.24 574.985 1697.33 589.875 1703.71 605.345C1714.05 630.405 1707.67 657.905 1707.61 684.365C1707.56 705.895 1706.79 706.245 1728.86 705.735C1772.82 704.715 1816.72 703.395 1860.63 708.205C1872.52 709.505 1876.51 713.375 1876.56 724.945C1876.63 738.625 1870.61 755.285 1878.96 765.255C1887.48 775.415 1904.89 770.465 1918.34 771.705C1931.29 772.895 1936.34 778.635 1936.25 791.075C1935.9 839.585 1936.04 888.105 1935.5 936.615C1935.29 955.645 1929.09 961.625 1910.31 960.825C1869.43 959.095 1828.59 956.655 1787.73 954.515C1768.84 953.525 1749.89 951.135 1731.07 951.905C1692.7 953.465 1656.94 938.945 1619.45 935.755C1595.51 933.715 1571.47 932.815 1547.52 930.815C1521.13 928.605 1521.15 928.305 1519.49 903.485C1522.4 837.795 1520.68 772.105 1519.19 706.425C1519.48 705.555 1519.88 704.705 1520 703.825C1520.04 703.525 1519.38 703.135 1519.04 702.775C1519.06 699.765 1519.05 696.785 1519.05 693.805Z" fill="#0F0B0C"/>
<path d="M1024.05 566.545C1027.87 564.585 1031.7 562.625 1035.52 560.665C1042.56 565.195 1047.84 564.865 1049.85 555.495C1050.43 555.225 1050.78 554.765 1050.91 554.135C1056.73 550.855 1059.33 545.265 1061.54 539.395C1062.35 538.605 1063.16 537.815 1063.97 537.025C1069.92 536.305 1073.87 532.935 1076.43 527.695L1076.62 527.605C1085.66 528.345 1092.8 522.385 1101.16 520.655C1108.46 519.145 1110.36 513.535 1110.51 506.965C1110.67 500.085 1108.47 495.035 1100.6 494.515C1086.69 486.975 1092.67 478.365 1101.02 472.565C1107.88 467.805 1111.86 462.035 1114.69 454.965C1116.72 449.905 1118.83 445.755 1125.16 445.585C1132.23 445.395 1137.35 441.445 1142.49 436.875C1154.04 426.595 1166.93 425.375 1180.81 432.405C1208.22 446.295 1220.2 464.465 1218.38 489.525C1217.3 504.335 1206.58 513.895 1198.51 524.465C1191.59 533.515 1187.6 539.235 1199.21 547.805C1219.46 562.755 1225.81 585.225 1228.74 608.965C1229.29 613.465 1230.05 617.935 1230.7 622.425C1229.33 635.295 1228.14 648.155 1231.7 660.905C1231.84 669.535 1231.7 678.175 1232.17 686.775C1233.77 716.095 1235.58 745.405 1237.32 774.715C1233.94 778.005 1232.94 782.005 1233.78 786.555C1232.95 790.865 1232.11 795.185 1231.28 799.495C1229.24 801.435 1229.01 803.645 1230.31 806.075C1227.03 819.435 1232.85 834.085 1224.54 846.725C1217.93 848.165 1211.32 849.615 1204.71 851.055C1203 845.705 1200.41 839.445 1194.4 840.385C1189.49 841.155 1189.68 847.975 1188.11 852.685C1180.24 876.235 1180.12 901.365 1172.59 924.925C1163.12 943.405 1162.14 963.815 1177.02 977.415C1206.92 1004.75 1220.17 1041.33 1238.45 1075.24C1241.85 1081.55 1245.01 1087.87 1249.97 1093.16C1254.64 1098.13 1258.41 1103.01 1254.5 1110.76C1250.45 1118.78 1258.51 1123.88 1261.42 1129.89C1266.23 1139.85 1265.99 1145.49 1255.28 1151.95C1235.52 1163.87 1214.53 1167.62 1192.2 1166.72C1176.79 1166.1 1172.45 1158.37 1179.12 1144.43C1185.37 1131.36 1196.89 1122.29 1205.26 1110.76C1212.75 1100.44 1212.72 1092.44 1207.29 1083.01C1188.92 1051.12 1169.6 1019.77 1141.32 995.455C1130.08 985.795 1124.05 975.095 1124.03 959.905C1124.01 942.135 1121.93 924.365 1120.75 906.595C1120.99 903.695 1121.23 900.805 1121.47 897.905C1126.63 886.865 1124.43 875.135 1124.44 863.665C1124.44 859.275 1124 853.655 1118.3 852.865C1113.27 852.175 1110.07 855.835 1108.47 860.575C1106.56 862.505 1104.66 864.435 1102.75 866.365C1099.21 867.145 1096.97 869.215 1096.3 872.845C1086.22 880.955 1076.14 889.065 1066.06 897.175C1058.51 899.415 1051.45 902.335 1048.06 910.275C1045.88 912.025 1043.7 913.785 1041.52 915.535C1018.08 930.655 1004.72 948.125 1010.46 979.895C1015.54 1008.06 1011.45 1037.91 1011.2 1067.01C1011.11 1077.44 1012.34 1086.49 1020.17 1095.07C1029.49 1105.29 1029.71 1119.6 1030.46 1132.79C1030.89 1140.32 1024.07 1142.47 1017.83 1143.81C988.79 1150.05 959.41 1153.93 929.78 1155.72C918.51 1156.4 909.82 1152.08 906.23 1140.36C902.23 1127.33 912.28 1121.15 920.57 1118.76C939.45 1113.33 953.9 1102.5 968.39 1090.09C975.5 1084 977.88 1078.27 978.92 1069.68C982.24 1042.24 975.58 1015.98 971.05 989.405C967.85 970.645 969.46 951.695 968.96 932.825C968.78 926.235 972.51 921.375 976.72 916.675C981.45 911.405 986.7 906.365 987.98 898.885C1010.7 868.925 1033.12 838.795 1059.76 811.965C1067.19 804.485 1073.2 793.855 1070.93 781.525C1073.04 778.125 1072.8 774.795 1070.64 771.525C1070.68 769.745 1070.71 767.955 1070.75 766.175C1072.23 761.045 1073.31 756.035 1067.16 752.995C1065.3 752.775 1063.44 752.545 1061.58 752.325C1056.41 746.135 1051.81 746.225 1047.88 753.585C1046.45 754.105 1045.02 754.625 1043.6 755.155C1041.71 755.795 1040.8 757.075 1041.02 759.105C1039.86 763.795 1040.85 769.065 1037.29 773.125C1036.2 774.195 1035.1 775.265 1034.01 776.335L1033.72 776.775C1030.52 778.955 1027.32 781.135 1024.12 783.325C1032.4 736.625 1036.15 689.405 1040.98 642.295C1042.23 630.165 1039.74 626.605 1026.28 627.745C1002.75 629.745 980.48 625.965 968.58 600.725C963.46 589.845 956.48 579.845 950.35 569.435C950.86 566.435 950.16 563.895 947.58 562.055C946.65 559.615 945.72 557.165 944.79 554.725C944.65 549.175 944.51 543.625 944.37 538.085C947.36 534.005 950.43 529.995 955.13 527.675C967.66 522.845 968.51 516.355 956.25 504.965C944.3 493.865 943.09 481.785 952.09 469.635C958.58 460.855 955.37 456.905 947.84 453.215C929.34 444.165 909.37 442.785 889.52 444.905C865.81 447.445 865.9 448.305 863.57 424.875C868.94 415.985 864.91 404.825 870.57 396.005C889.03 397.585 907.56 398.655 925.17 405.295C931.14 407.545 936.79 411.795 943.82 409.235L944.19 409.425C945.33 419.665 951.82 419.795 959.57 417.555C963.17 418.165 966.78 418.775 970.39 419.385C971.5 424.295 973.41 424.235 975.97 420.295C983.36 422.315 990.48 425.805 998.49 424.305C1001.89 424.005 1005.29 423.715 1008.69 423.415C1010.38 424.025 1012.06 424.645 1013.75 425.255C1016.75 431.425 1021.96 435.435 1027.31 439.395C1033.91 444.275 1034.99 452.845 1029.78 456.595C1020.42 463.345 1012.36 474.515 997.26 470.045C982.95 465.815 974.46 472.015 976.43 486.235C979.37 507.485 983.21 529.025 997.67 546.505C998.65 549.185 999.63 551.855 1000.61 554.535C1001.43 558.405 1001.96 562.345 1003.12 566.105C1004.61 570.935 1006.64 575.855 1012.86 575.725C1018.73 575.635 1023.61 573.635 1024.05 566.545Z" fill="#0F0B0C"/>
<path d="M1571.59 355.335C1581.25 328.665 1591.31 302.135 1600.36 275.265C1603.47 266.035 1612.35 259.745 1612.47 249.325C1615.25 247.425 1616.69 244.885 1616.25 241.435C1617 239.885 1617.75 238.325 1618.49 236.775C1622.2 234.235 1623.62 230.715 1623.02 226.305C1623.71 224.765 1624.4 223.215 1625.09 221.675C1628.49 219.605 1629.29 215.945 1630.27 212.585C1642.07 172.375 1654.91 132.425 1660.42 90.6447C1661.89 79.5147 1664.2 68.4848 1666.24 57.4348C1666.81 54.3648 1667.91 51.2148 1671.63 50.9648C1675.54 50.7048 1676.71 53.9048 1677.32 56.9148C1687 104.535 1705.03 149.975 1713.96 197.825C1717.72 217.965 1716.28 238.735 1721.97 258.565C1725.97 272.525 1732.82 274.705 1741.83 263.755C1764.91 235.705 1784.12 205.115 1799.15 171.975C1800.73 168.685 1802.3 165.395 1803.88 162.105C1809.43 157.315 1812.46 151.095 1814.14 144.105C1815.32 142.265 1816.49 140.435 1817.67 138.595C1823.82 135.875 1826.27 127.725 1834.08 127.445C1831.95 137.595 1833.65 148.385 1829 158.115C1826.97 159.765 1826.85 161.815 1827.75 164.085C1824.28 173.055 1823.82 182.445 1823.85 191.895C1819.4 199.385 1816.99 207.325 1818.46 216.125C1816.06 225.425 1813.67 234.725 1811.27 244.035C1808.33 244.485 1807.15 246.695 1806.17 249.115C1781.08 311.105 1754.2 372.475 1743.74 439.315C1741.94 450.825 1737.78 461.995 1734.32 473.205C1733.32 476.445 1732.2 481.325 1728.31 481.335C1722.76 481.355 1723.28 475.585 1722.73 471.945C1718.05 440.625 1713.82 409.225 1709.13 377.905C1704.45 346.595 1698.89 315.405 1697.1 283.725C1696.93 280.695 1696.17 277.645 1695.31 274.715C1693.9 269.945 1693.6 264.035 1687.29 262.875C1681.34 261.785 1677.89 266.265 1674.76 270.225C1652.94 297.805 1628.11 322.815 1606.58 350.705C1595.42 365.165 1581.15 377.165 1572.35 393.685C1570.44 397.265 1568.14 402.045 1561.93 402.195C1557.89 385.005 1572.95 371.765 1571.59 355.335Z" fill="#0F0B0C"/>
<path d="M652.96 1000.02C630.13 999.385 625.52 993.225 631.53 971.495C632.89 966.585 633.42 960.945 639.76 959.885C645.77 958.875 648.97 963.115 651.91 967.495C655.31 972.565 658.8 977.575 662.3 982.585C664.94 986.355 668.44 990.215 666.33 995.055C663.81 1000.85 658.03 999.945 652.96 1000.02Z" fill="#0F0B0C"/>
<path d="M435.23 240.875C439.79 255.705 449.04 268.035 457.31 280.765C462.89 289.355 464.45 297.545 460.12 306.695C431.05 368.205 418.71 434.805 401.18 499.825C399.36 506.575 399.34 515.095 390.94 517.235C382.17 519.465 379.11 510.895 374.15 506.135C319.29 453.495 286.3 386.345 250.69 320.865C243.55 307.735 247.59 296.235 252.7 284.315C263.98 258.035 274.39 231.345 286.8 205.615C304.25 169.445 312.98 130.385 326.21 92.835C329 84.925 331.42 79.6249 340.8 82.2549C346.38 91.1149 351.96 99.975 357.54 108.845C365.05 122.025 372.36 135.315 380.12 148.345C387.84 161.295 392.42 176.385 405.25 185.925C405.25 185.925 405.77 186.585 405.77 186.575C406.69 192.795 409.15 198.115 414.64 201.665C416.32 204.545 418 207.425 419.68 210.295C421.36 220.215 424.26 229.485 433.24 235.475C433.92 237.285 434.58 239.085 435.23 240.875ZM403.47 293.735C402.6 290.635 402.29 286.875 400.59 283.895C387.5 260.825 376 236.765 359.88 215.535C351.02 203.865 345.01 204.515 339.79 218.725C331.13 242.245 320 264.605 309.97 287.475C306.59 295.165 300.96 304.325 305.82 312.325C320.63 336.705 336.08 360.765 352.65 383.975C359.91 394.135 366.82 392.165 371.17 380.175C380.55 354.265 388.29 327.745 400.82 303.035C402.15 300.365 402.5 297.195 403.47 293.735Z" fill="#0F0B0C"/>
<path d="M1432.35 360.815C1431.23 362.075 1430.12 363.325 1429 364.585C1422.01 366.915 1419.13 372.965 1416.1 378.875C1405.87 384.955 1397.63 393.455 1388.88 401.325C1386.92 400.865 1386.07 401.785 1386.01 403.665C1385.06 404.275 1384.12 404.895 1383.17 405.505C1380.8 405.215 1378.42 404.925 1376.05 404.635L1375.66 404.245C1375.29 398.315 1373.46 392.975 1369.37 388.535C1368.62 385.635 1367.87 382.725 1367.12 379.825C1368.46 376.595 1366.17 374.865 1364.28 372.975C1363.14 363.755 1361.99 354.545 1360.85 345.325C1362.66 338.045 1360.08 332.145 1355.04 327.035C1354.97 324.925 1354.89 322.815 1354.81 320.705C1357.1 318.095 1357.02 314.915 1356.22 311.985C1347.19 278.885 1342.76 244.885 1336.06 211.345C1332.57 193.835 1333.09 179.355 1345.52 165.985C1350.71 160.405 1355.27 154.175 1359.57 147.855C1372.96 128.165 1389.78 110.635 1397.84 87.5749C1399.36 86.0249 1400.87 84.4748 1402.39 82.9348C1408.01 80.0848 1411.24 74.795 1415.32 70.3549C1432.78 51.305 1444.66 27.965 1462.79 9.36496C1475.6 -3.77504 1477.3 -3.76518 1484.58 13.7248C1484.84 15.7548 1485.11 17.7949 1485.37 19.8249C1486.85 43.3949 1493 65.7648 1502.81 87.1848C1503.18 89.3248 1503.56 91.475 1503.93 93.615C1514.56 131.395 1526.02 168.945 1541.77 204.955C1551.69 227.635 1550.74 235.585 1532.49 252.065C1522.67 260.935 1512.02 268.985 1504.92 280.475C1501.98 283.565 1499.04 286.645 1496.1 289.735C1477.69 300.725 1462.14 314.655 1451.2 333.325C1448.89 337.365 1446.58 341.395 1444.27 345.435C1438.02 348.785 1433.1 353.185 1432.35 360.815ZM1394.36 199.885C1396.91 226.675 1398.14 253.705 1404.57 280.035C1407.92 293.735 1416.5 296.565 1426.52 286.705C1444.31 269.185 1461.5 251.055 1478.7 232.945C1485.84 225.435 1488.49 216.245 1485.62 206.055C1478.86 182.005 1472.24 157.905 1464.92 134.025C1461.18 121.845 1455.68 120.805 1446.19 129.205C1430.51 143.075 1416.36 158.335 1403.24 174.685C1397.12 182.315 1393.61 190.135 1394.36 199.885Z" fill="#0F0B0C"/>
<path d="M186.13 299.175C189.18 319.785 192.56 340.355 195.21 361.015C200.22 400.025 208.29 438.485 215.26 477.145C216.25 482.625 217.6 488.165 214.26 495.935C197.15 482.595 184.95 466.445 174.68 448.485C159.78 422.415 148.33 394.235 127.78 371.605C123.73 367.145 120.5 360.735 113.1 362.725C106.8 364.415 105.58 370.705 104.22 376.105C94.8502 413.265 86.1302 450.555 79.9502 488.415C77.6502 502.515 73.8398 516.365 70.5898 530.305C69.9098 533.215 69.13 536.945 65.52 537.105C61.65 537.275 61.2901 533.255 60.3101 530.525C49.2901 499.935 46.68 467.735 42.23 435.875C35.88 390.365 32.3498 344.405 18.0698 300.235C10.3398 276.315 8.71984 251.065 5.08984 226.295C4.27984 220.805 5.07021 214.935 0.970215 210.295C0.650215 199.055 0.32 187.815 0 176.575C0.36 175.635 0.719824 174.695 1.06982 173.745C2.89982 168.705 -1.35996 160.385 4.79004 158.725C11.68 156.865 10.7902 166.625 14.7202 170.115C15.4702 170.775 16.2798 171.375 17.0698 171.995C18.6798 174.655 20.2899 177.325 21.8999 179.985C21.7699 186.995 25.16 191.925 31.02 195.385C32.05 197.435 33.0801 199.475 34.1001 201.515C42.8401 224.195 54.5503 245.315 67.7803 265.645C68.8203 267.775 69.8599 269.905 70.8999 272.035C73.1699 279.855 76.93 286.325 85.71 288.185C88.05 288.585 90.39 288.985 92.73 289.395C115.63 292.205 126.01 285.275 129.8 263.945C131.22 255.935 132.46 247.695 132.14 239.625C130.85 207.115 139.78 175.885 143.61 144.035C144.06 140.285 144.02 134.515 148.72 133.845C154.41 133.025 153.8 139.235 154.83 142.695C156.85 149.505 158.1 156.545 159.62 163.495C164.81 187.295 169.97 211.095 175.15 234.905C175.51 237.985 175.88 241.065 176.24 244.145C175.06 246.505 175.47 248.555 177.43 250.305C177.92 252.345 178.41 254.375 178.9 256.405C177.32 259.925 178.04 262.995 180.71 265.685C181.33 269.685 181.94 273.695 182.56 277.695C181.1 281.095 181.17 284.295 183.79 287.165C184.56 291.175 185.35 295.175 186.13 299.175Z" fill="#0F0B0C"/>
<path d="M740.63 31.8651C741.19 32.6751 741.92 33.245 742.84 33.575C744.19 36.475 746.53 38.0651 749.63 38.6351C752.39 42.5651 756.39 44.695 760.73 46.325C764.11 51.395 768.47 55.105 774.63 56.325C779.37 60.045 784.12 63.7549 788.86 67.4749C790.24 70.5249 792.62 72.0849 795.96 72.2049C796.37 72.9149 796.98 73.375 797.77 73.585C799.37 76.475 801.77 78.0249 805.14 77.9449C806.97 79.4049 808.8 80.875 810.63 82.335C814.25 88.825 816.8 96.3249 825.38 98.2249C830.7 103.135 836.02 108.055 841.33 112.965C842.27 116.365 844.59 118.045 848.03 118.335C848.56 119.055 849.26 119.535 850.13 119.755C852.65 123.475 855.61 126.595 860.4 127.225C862.37 128.585 864.34 129.945 866.3 131.295C869.77 136.665 874.05 141.145 880.04 143.745C880.19 144.335 880.56 144.685 881.16 144.785C885.43 150.545 889.99 155.965 897.1 158.425C897.59 159.095 898.24 159.555 899.04 159.775C911.84 168.705 913.35 179.465 905.29 192.655C902.75 196.805 902.42 202.315 901.08 207.195C900.35 207.825 899.87 208.605 899.63 209.525C891.72 216.185 887.75 225.015 885.69 234.895C884.81 236.315 883.93 237.735 883.05 239.155C876.72 248.435 869.26 257.095 866.84 268.535C866.16 269.025 865.72 269.675 865.51 270.485C838.54 309.455 808.62 346.395 784.99 387.665C782.47 392.075 779.69 397.435 773.67 396.335C768.06 395.305 768.67 389.385 767.7 385.055C759.48 348.505 755.63 311.285 756.06 274.035C756.59 228.145 740.48 185.835 731.72 141.945C731.35 140.085 729.69 138.485 728.63 136.755C728.1 134.745 727.57 132.725 727.05 130.715C716.63 95.7449 706.24 60.755 695.76 25.795C693.44 18.065 687.84 8.04503 693.5 2.84503C699.87 -2.99497 705.38 9.50484 712.76 10.3948C715.06 12.6648 717.37 14.9349 719.67 17.2049C724.89 24.6149 732.39 28.7651 740.63 31.8651ZM847.01 188.705C847.34 179.745 844.01 174.565 839.25 170.505C827.59 160.575 815.52 151.135 802.06 143.695C798.07 141.485 793.9 138.635 789.34 142.215C785.2 145.455 785.04 150.175 785.9 154.825C786.64 158.825 787.91 162.725 789.02 166.645C795.11 188.255 802.16 209.615 803.74 232.265C804.19 238.765 804.4 247.055 812.6 248.265C821.22 249.535 822.19 240.555 825.08 235.045C831.24 223.305 837 211.355 842.74 199.405C844.7 195.315 846.12 190.975 847.01 188.705Z" fill="#0F0B0C"/>
<path d="M524.26 205.795C524.18 206.585 524.39 207.295 524.88 207.925C524.96 212.105 525.72 215.985 529.67 218.395C530.62 219.845 531.57 221.295 532.51 222.745C536.85 244.755 551.62 261.905 560.21 281.945C570.42 305.795 580.72 329.615 591.32 353.295C596.57 365.025 605.35 372.205 618.22 376.125C645.99 384.605 673.35 394.425 700.72 404.135C706.62 406.225 715.18 408.065 713.97 416.515C712.86 424.295 704.62 422.805 698.84 423.625C684.74 425.625 670.52 427.055 657.94 434.635C655.98 434.935 654.02 435.235 652.06 435.535C647.57 434.075 643.32 434.295 639.49 437.375C637.53 437.725 635.56 438.065 633.6 438.415C630.01 437.295 626.87 438.125 624.12 440.605C622.21 440.975 620.3 441.335 618.39 441.705C591.88 445.195 566.7 454.315 540.69 459.905C538.92 459.505 537.15 459.105 535.37 458.705C530.11 450.295 527.04 441.245 527.14 431.235C527.71 370.525 508.14 313.835 492.24 256.415C491.78 252.385 491.32 248.355 490.87 244.335C492.64 239.785 491.83 235.625 488.94 231.785C489.11 224.485 488.15 217.355 485.82 210.425C486.78 201.015 486.58 191.735 483.02 182.785C482.54 177.735 482.06 172.695 481.58 167.645C482.97 164.255 482.98 161.075 480.24 158.275C479.65 150.155 479.05 142.035 478.46 133.915C478.95 122.605 481.33 111.195 476.77 100.135C476.33 94.9749 475.89 89.8247 475.45 84.6747C479.91 81.1647 471.95 70.0149 483.83 71.0749C489.37 86.6349 492 103.155 499.37 118.105C498.3 120.545 498.75 122.625 500.89 124.285C501.4 126.345 501.9 128.415 502.41 130.465C501.24 133.905 502 136.915 504.48 139.515C504.93 141.525 505.38 143.535 505.83 145.535C505.01 148.065 505.59 150.215 507.62 151.955C508.15 153.865 508.68 155.775 509.22 157.685C507.79 163.695 509.05 168.985 513.43 173.455C514.03 175.355 514.63 177.265 515.24 179.165C513.97 183.285 514.42 186.985 517.88 189.945C518.81 192.625 519.74 195.295 520.67 197.975C520.02 201.425 521.4 203.955 524.26 205.795Z" fill="#0F0B0C"/>
</svg>
